<?xml version="1.0" encoding="UTF-8"?>
<svg id="Layer_2" data-name="Layer 2" xmlns="http://www.w3.org/2000/svg" viewBox="0 0 107.82 199.36">
  <defs>
    <style>
      .cls-1 {
        fill: #fff;
      }

      .cls-2 {
        fill: #d7dce0;
      }

      .cls-3 {
        fill: #cda284;
      }

      .cls-4 {
        fill: #c09e4d;
      }

      .cls-5 {
        fill: #31383c;
      }

      .cls-6 {
        fill: #3b4550;
      }

      .cls-7 {
        fill: #a1743e;
      }

      .cls-8 {
        fill: #e9cda2;
      }
    </style>
  </defs>
  <g id="OBJECTS">
    <g>
      <g>
        <path class="cls-1" d="m45.39,106.61c.9.02.68-1.12.07-1.39,0,0-.01,0-.02-.01-.02.03-.04.05-.06.07-.27.21-.57.39-.58.78-.01.35.27.55.6.55Z"/>
        <path class="cls-4" d="m50.48,161.85c7.44.88,14.95,1.17,22.44.8,7.3-.36,14.42-1.52,21.58-2.86.19-6.12.44-12.2.25-18.33-.34-10.94-1.4-21.83-2.31-32.74-.1-1.26-.2-2.51-.3-3.77-.73-.62-1.33-1.35-1.97-2.07-.37-.41-.73-.98-1.16-1.32-.59-.47-.62-.45-1.13.14-1.43,1.65-2.81,3.51-4.44,4.97-.07.38-.47.71-.85.43-.94-.7-1.7-1.61-2.42-2.56.02.11.03.22.03.33-.03.71-.62,1.22-1.32,1.24-.71.03-1.36-.48-1.41-1.21-.05-.62.41-1.49,1.12-1.46.11,0,.21.08.27.17.04-.04.09-.07.15-.07.17,0,.33.04.47.1-.66-.87-1.34-1.73-2.14-2.44-.44-.39-.24-.29-.47.18-.16.33-.41.63-.61.94-.37.56-.73,1.13-1.1,1.69-.72,1.1-1.45,2.21-2.26,3.25-.2.26-.48.21-.67.04-1.41-.17-2.33-1.73-3.2-2.72-1.04-1.2-2.08-2.4-3.09-3.62-1.81,2.4-3.56,5-5.71,7.07-.17.17-.39.17-.56.08-.12,0-.24-.06-.34-.15-.87-.87-1.47-2.01-2.22-2.98-.64-.84-1.35-1.62-2.06-2.39-1.42,2.23-2.6,4.58-3.95,6.86-.21.36-.77.19-.79-.17-.02-.02-.04-.03-.06-.05-1.25-1.28-2.25-2.85-3.42-4.21-1-1.16-2.06-2.28-3.14-3.37-1.1,1.9-2.12,3.98-3.51,5.64-.25,6.79-.5,13.59-.75,20.38-.4,10.58-.65,21.17-1.23,31.74-.01.25-.13.42-.29.52,2.01.18,4,.62,5.98.97,2.19.38,4.38.7,6.58.96Zm37.87-57.57c.11,0,.21.08.27.17.04-.04.09-.07.15-.07.72.01,1.2.62,1.18,1.33-.03.71-.62,1.22-1.32,1.24-.71.03-1.36-.48-1.41-1.21-.05-.62.41-1.49,1.12-1.46Zm-20.86-.14c.11,0,.21.08.27.17.04-.04.09-.07.15-.07.72.01,1.2.62,1.18,1.33-.03.71-.62,1.22-1.32,1.24-.71.03-1.36-.48-1.41-1.21-.05-.62.41-1.49,1.12-1.46Zm-12.46.7c.11,0,.21.08.27.17.04-.04.09-.07.15-.07.72.01,1.2.62,1.18,1.33-.03.71-.62,1.22-1.32,1.24-.71.03-1.36-.48-1.41-1.21-.05-.62.41-1.49,1.12-1.46Zm-9.6,53.14c-.06,0-.06-.09,0-.09s.06.09,0,.09Zm-.29-53.28c.11,0,.21.08.27.17.04-.04.09-.07.15-.07.72.01,1.2.62,1.18,1.33-.03.71-.62,1.22-1.32,1.24-.71.03-1.36-.48-1.41-1.21-.05-.62.41-1.49,1.12-1.46Z"/>
        <path class="cls-1" d="m55.28,106.75c.9.01.68-1.12.07-1.39,0,0-.01,0-.02-.01-.02.03-.04.05-.06.07-.27.21-.57.39-.58.78-.01.35.27.55.6.55Z"/>
        <path class="cls-1" d="m67.74,106.05c.9.02.68-1.12.07-1.39,0,0-.01,0-.02-.01-.02.03-.04.05-.06.07-.27.21-.57.39-.58.78-.01.35.27.55.6.55Z"/>
        <path class="cls-1" d="m44.02,100.16c1.38,1.28,2.68,2.63,3.91,4.05.97,1.11,2.08,2.31,2.89,3.59.93-2.32,2.26-4.51,3.59-6.6.23-.37.71-.42,1.03-.13,1.02.93,1.93,1.99,2.78,3.07.61.78,1.27,1.6,1.72,2.5,1.55-2.51,3.6-4.81,5.38-7.14.26-.34.76-.51,1.1-.14,1.15,1.26,2.27,2.56,3.39,3.86.79.92,1.84,1.85,2.56,2.87.76-1.39,1.63-2.72,2.47-4.06.5-.8,1.23-2.77,2.44-2.59.58.09.97.71,1.32,1.11.56.65,1.13,1.3,1.69,1.95.88,1.02,1.97,2.05,2.74,3.2.73-1.03,1.61-1.98,2.41-2.95.53-.63,1.06-1.26,1.59-1.89.29-.35.59-.8,1.01-1,.95-.46,1.64.47,2.2,1.09.56.62,1.17,1.24,1.73,1.89-.14-1.94-.27-3.88-.39-5.82-.14.06-.3.06-.44-.04-.92-.65-1.52-1.68-2.18-2.59-.39-.54-.74-1.16-1.19-1.64-.03-.04-.06-.06-.08-.09,0,.04-.02.09-.07.15-.18.22-.31.5-.45.74-1.25,2.06-2.38,4.3-3.93,6.15-.12.14-.31.16-.47.09-.03,0-.07-.01-.11-.03-1.23-.49-2.08-2.05-2.87-3.08-.79-1.04-1.56-2.09-2.3-3.17-.54.97-1.08,1.95-1.63,2.92-.67,1.17-1.27,2.47-2.18,3.48-.13.14-.3.16-.45.1-.14.04-.31.01-.48-.11-1.37-.94-2.55-2.27-3.7-3.47-1.02-1.07-2-2.18-2.94-3.32-.78,1.21-1.6,2.4-2.49,3.54-.95,1.23-1.93,2.58-3.21,3.49-.09.06-.18.08-.27.07-.21.12-.47.12-.66-.12-1.61-1.98-2.92-4.29-4.28-6.47-.79,1.15-1.58,2.3-2.37,3.44-.73,1.05-1.46,2.56-2.52,3.36-.07.45-.64.79-1,.36-.94-1.11-1.71-2.37-2.58-3.53-.81-1.09-1.67-2.15-2.52-3.22-1.07,1.88-2.29,3.81-3.77,5.39-.07,1.92-.14,3.84-.21,5.77.83-1.67,1.89-3.29,2.75-4.89.2-.38.71-.4,1-.13Z"/>
        <path class="cls-1" d="m78.89,103.94s-.04.05-.06.07c-.27.21-.57.39-.58.78-.01.35.27.55.6.55.9.02.68-1.12.07-1.39,0,0-.01,0-.02-.01Z"/>
        <path class="cls-1" d="m70.11,69.7c3.09-.07,6.19-1.08,8.54-3.13.96-.85,1.8-1.84,2.46-2.94.6-1.01.89-2.06,1.24-3.13-.86-.2-1.74-.37-2.62-.47-.47,2.13-2.34,4.01-4.07,5.19-1.94,1.33-4.35,2.06-6.7,1.94-4.51-.24-8.94-3.57-9.94-8.06-.66.09-1.32.19-1.98.3-.77,7.01,7.22,10.44,13.08,10.31Z"/>
        <path class="cls-8" d="m78.76,53.73c3.58-1.26,6-3.78,6.97-7.47,1-3.81.25-7.75-.11-11.6-.01-.14.04-.24.13-.31-.12-1.08-.03-2.2-.07-3.26-.06-1.47-.2-2.94-.42-4.4-.4-2.67-1.02-5.38-1.81-7.97-.66.2-1.37.31-2.01.45-1.36.3-2.74.56-4.12.76-2.61.39-5.24.63-7.87.7-5.23.13-10.28-.5-15.32-1.82.49.69.69,1.61.8,2.42.23,1.64.27,3.32.23,4.98-.05,1.72-.22,3.44-.51,5.14-.28,1.63-.54,3.48-1.31,4.96-.21.4-.92.26-.94-.18-.01-.01-.03-.02-.04-.04-.97-1.34-2.34-2.39-4.1-2.04-1.55.31-2.76,1.64-3.09,3.16-.39,1.74.39,3.6,1.69,4.76,1.4,1.24,2.93,1.3,4.62,1.6,0-.05.01-.1.02-.14.09-.51.76-.38.91,0,.31.81.42,1.68.71,2.5.3.86.73,1.69,1.21,2.46.96,1.52,2.25,2.85,3.72,3.89,5.83,4.14,14.22,3.74,20.71,1.45Zm3.43-15.27c-.12-.24-.24-.47-.35-.71-.1-.21-.24-.39-.18-.63.03-.11.16-.16.26-.1.21.11.26.35.35.56.1.24.2.49.3.73.09.22-.27.36-.37.16Zm.9-2.45c.35-.21.51.25.58.51.12.45.31.87.6,1.23.2.24-.11.57-.35.35-.31-.29-.59-.62-.78-1-.13-.27-.42-.86-.06-1.08Zm-3.29-10.47c1.14-.04,2.1.6,2.72,1.52.3.44-.39.96-.74.57-.5-.57-1.22-.92-1.99-.83-.71.08-1.13.66-1.78.8-.27.06-.62-.13-.59-.45.11-1.07,1.41-1.58,2.37-1.61Zm-2.37,9.34c0-.12.03-.24.05-.36-.08-.27-.02-.51.12-.69.09-.43.28-.83.61-1.08.08-.06.16-.11.24-.15.08-.09.17-.11.27-.09.45-.09.93.09,1.21.52.69,1.03-.03,3.81-1.65,3.37-.67-.18-.89-.91-.85-1.53Zm-26.36,3.96c-1.27.89-.74,1.89-.13,2.95.16.28-.1.61-.41.53-1.92-.5-1.63-3-.41-4.09-.61-1.06-1.74-2.5-2.94-1.39-.16.14-.42-.04-.3-.23.46-.74,1.3-1.03,2.15-.8,1.1.29,1.72,1.4,2.23,2.32.15.27.05.55-.19.72Zm21.39.61c.82.3,1.47,1.02,1.47,1.93,0,.76-.56,1.89-1.45,1.77-.2-.03-.33-.2-.23-.4.23-.44.67-.71.77-1.22.12-.64-.24-1.21-.8-1.5-.32-.16-.09-.71.25-.58Zm-13.06-1.81c-.21-.17-.42-.35-.63-.52-.13-.11-.35-.36-.18-.54.19-.19.45.04.59.17.19.18.38.36.57.53.24.23-.11.56-.36.36Zm1.74-.11c-.29-.24-.56-.49-.83-.76-.21-.21-.53-.49-.51-.82,0-.11.09-.2.2-.2.33-.02.6.3.81.52.26.27.51.54.74.84.24.3-.12.66-.42.42Zm.29-12.12c1.55-.98,4.31-.99,5.25.88.24.47-.3,1.2-.81.81-1.22-.92-2.49-1.82-4.07-1.05-.43.21-.78-.38-.37-.64Zm2.31,11c-.67-.18-.89-.91-.85-1.53,0-.12.03-.24.05-.36-.08-.27-.02-.51.12-.69.09-.43.28-.83.61-1.08.08-.06.16-.11.24-.15.08-.09.17-.11.27-.09.45-.09.93.09,1.21.52.69,1.03-.03,3.81-1.65,3.37Zm1.11,8.69c-.07-.26.22-.48.45-.35,1.43.8,2.42,2.05,4.04,2.61,1.8.62,3.9.58,5.69-.09.44-.17.75.57.32.76-2.05.9-4.16,1.2-6.33.48-1.58-.52-3.7-1.68-4.17-3.42Z"/>
        <path class="cls-3" d="m56.75,48.32c-2.93-6.94-1.78-15.57.9-22.4.5-1.28,1.01-2.41,2.48-2.61,2.58-.35,5.53.24,8.14.25,5.08.02,11.06-.13,15.85-2.41-.21-.81-.43-1.62-.68-2.42-.66.2-1.37.31-2.01.45-1.36.3-2.74.56-4.12.76-2.61.39-5.24.63-7.87.7-5.23.13-10.28-.5-15.32-1.82.49.69.69,1.61.8,2.42.23,1.64.27,3.32.23,4.98-.05,1.72-.22,3.44-.51,5.14-.28,1.63-.54,3.48-1.31,4.96-.21.4-.92.26-.94-.18-.01-.01-.03-.02-.04-.04-.97-1.34-2.34-2.39-4.1-2.04-1.55.31-2.76,1.64-3.09,3.16-.39,1.74.39,3.6,1.69,4.76,1.4,1.24,2.93,1.3,4.62,1.6,0-.05.01-.1.02-.14.09-.51.76-.38.91,0,.31.81.42,1.68.71,2.5.3.86.73,1.69,1.21,2.46.96,1.52,2.25,2.85,3.72,3.89.72.51,1.48.95,2.27,1.33-1.55-1.55-2.79-3.44-3.57-5.29Zm-5.69-9.46c-1.27.89-.74,1.89-.13,2.95.16.28-.1.61-.41.53-1.92-.5-1.63-3-.41-4.09-.61-1.06-1.74-2.5-2.94-1.39-.16.14-.42-.04-.3-.23.46-.74,1.3-1.03,2.15-.8,1.1.29,1.72,1.4,2.23,2.32.15.27.05.55-.19.72Z"/>
        <path class="cls-1" d="m88.6,106.18c.9.01.68-1.12.07-1.39,0,0-.01,0-.02-.01-.02.03-.04.05-.06.07-.27.21-.57.39-.58.78-.01.35.27.55.6.55Z"/>
        <path class="cls-6" d="m48.98,32.76c1.42.07,2.94.84,3.63,2.11.24-1.07.57-2.14.77-3.22.3-1.59.49-3.2.58-4.81.09-1.6.08-3.2-.03-4.8-.1-1.34-.48-2.39-.93-3.64-.08-.21.19-.38.37-.28,0,0,0,0,0,0,.05-.02.1-.03.16-.01,5.12,1.01,10.49,1.43,15.71,1.3,2.66-.06,5.33-.29,7.96-.71,1.31-.2,2.61-.45,3.91-.74,1.08-.24,2.3-.78,3.41-.63.31.04.62.46.3.71-.21.17-.44.3-.68.42,1.12,2.63,1.91,5.26,2.35,8.11.23,1.5.39,3.01.44,4.52.03.85.09,1.76.02,2.64.68-1.48,1.22-2.98,1.48-4.66.36-2.29.23-4.63-.2-6.9-.15-.18-.21-.43-.05-.65.66-.94,1.58-1.7,2.32-2.59.61-.74,1.16-1.53,1.73-2.3-2.65-.44-5.41-1.97-7.56-3.36-.4-.26-.42-1.05.15-1.14,1.19-.17,2.39-.34,3.58-.51-1.81-3.1-4.99-4.67-8.57-5.06-.02,0-.04,0-.06-.01-.24.19-.68.1-.66-.29.08-1.56.41-3.13.72-4.67-6.15,2.13-12.81,1.09-19.16,2.08-3.27.51-6.53,1.58-9.01,3.85-2.21,2.03-3.39,4.54-3.62,7.49.13.12.16.32,0,.49-2.1,2.04-3.08,5.02-3.18,7.9-.12,3.45,1.01,6.61,1.82,9.9.7-.38,1.49-.59,2.32-.55Z"/>
        <path class="cls-8" d="m69.11,65.89c2.1.05,4.16-.63,5.89-1.8,1.65-1.12,2.56-2.59,3.59-4.18-.84-.06-1.7-.09-2.56-.07-.47.01-.57-.72-.11-.82,0,0,0,0,0,0,0-.01,0-.02-.01-.04-.11-.68-.33-1.33-.43-2.02-.04-.25-.11-.54-.12-.82-3.19.67-6.53.89-9.73.48-.46-.06-.92-.13-1.38-.22.02.34-.04.69-.07,1.05-.06.79-.1,1.58-.3,2.36-.08.33-.64.36-.7,0-.06-.39-.09-.79-.1-1.18-1.12.11-2.23.23-3.35.37,1.61,3.8,5.1,6.79,9.37,6.9Z"/>
        <path class="cls-3" d="m76.65,59.83c-.21,0-.41,0-.62,0-.47.01-.57-.72-.11-.82,0,0,0,0,0,0,0-.01,0-.02-.01-.04-.11-.68-.33-1.33-.43-2.02-.04-.25-.11-.54-.12-.82-3.19.67-6.53.89-9.73.48-.46-.06-.92-.13-1.38-.22.02.34-.04.69-.07,1.05-.06.79-.1,1.58-.3,2.36-.02.07-.07.12-.12.17,2.81,2.87,9.99,2.66,12.89-.13Z"/>
        <path class="cls-6" d="m66.11,170.43c.04,1.24.11,2.47.2,3.7.03.44.12.93.18,1.42,1.11.68,2.36-.26,2.76-1.31.39-1.02.34-2.18.35-3.26,0-1.16,0-2.33-.11-3.49-.11-1.1-.42-2.1-.67-3.15-.9.02-1.8.03-2.7.03.04,2.02-.07,4.05,0,6.07Z"/>
        <path class="cls-8" d="m8.92,49.79c1.39-.13,2.79-.25,4.19-.34.27-.02.55-.05.85-.08-.02-.12.03-.26.17-.36,2.98-2.05,5.48-4.76,6.82-8.16.31-.79.59-1.63.74-2.48.4-2.26-1.8-1.03-2.56-.3-.9.84-1.5,1.83-2.13,2.82-.08.36-.18.71-.31,1.04-.05.12-.16.21-.27.24-.04.07-.12.12-.22.16-.08.02-.16.05-.24.08-.09.11-.2.13-.29.1-1.03.38-2.04.94-2.86,1.65-.8.68-1.32,1.76-2.2,2.32-.2.13-.46-.04-.46-.26-.03-1.21,1.23-2.38,2.11-3.07.98-.77,2.03-1.24,3.23-1.48.08-.32.19-.64.34-.97-.04-1.02.07-2.08.1-3.06.05-1.4.07-2.8.05-4.2-.02-1.47-.05-2.95-.13-4.42-.04-.68.04-2.04-.34-2.93-.09.03-.2.03-.31-.02-2.66-1.23-2.18,3.27-2.17,4.68.01,2.15-.03,4.29-.21,6.43-.03.37-.54.37-.57,0-.1-.98-.17-1.95-.22-2.93-.56-1.76-.62-3.85-.89-5.63-.14-.91-.15-1.96-.46-2.82-.23-.64-.64-1.24-1.51-.75-.41.23-.63.73-.74,1.2.03.12,0,.25-.07.34,0,0,0,.02,0,.02-.04.27-.38.25-.51.06-2.89-.55-2.85,3.36-2.95,5.26-.07,1.2-.14,2.41-.21,3.61-.06,1.08-.03,2.22-.28,3.28-.12.53-.81.34-.86-.12-.13-1.03-.07-2.14.02-3.23-.03-.04-.05-.08-.05-.14,0-1.21-.12-2.42-.51-3.57-.16-.48-.15-.67-.68-.79-.57-.13-.79.22-.97.78-.18.57-.16,1.26-.18,1.85-.04,1.25.02,2.5.11,3.75.06.88.22,1.78.15,2.66.12.05.21.16.21.31-.03,1.84-.17,3.72.05,5.55.21,1.83.95,3.18,1.86,4.7,1.78-.33,3.56-.59,5.39-.77Zm-1.13-22.18c.03-.4.6-.4.62,0,.08,1.61.13,3.23.26,4.84.12,1.57.57,3.25.47,4.81-.03.39-.53.44-.66.09-.54-1.4-.52-3.19-.63-4.68-.12-1.69-.16-3.37-.05-5.06Zm-4.04,11.99c1.57-.43,3.16-.68,4.78-.85.86-.09,1.72-.16,2.58-.19.68-.03,1.25-.12,1.84.25.14.09.14.28,0,.37-.58.38-1.15.31-1.84.34-.79.04-1.58.09-2.37.15-1.64.14-3.28.37-4.91.55-.36.04-.41-.53-.08-.62Z"/>
        <path class="cls-3" d="m13.7,42.27c.08-.24.14-.51.18-.79-.35-1.02-.99-1.66-1.83-2-.29.03-.6.02-.93.04-.79.04-1.58.09-2.37.15-1.06.09-2.12.22-3.17.35-1.6.58-3.06,1.5-3.5,3.06-.49,1.74.79,4.06,2.45,4.86,1.52.73,3.07-.12,4.3-1,.46-.33.89-.68,1.32-1.05.18-1.09,1.28-2.1,2.08-2.73.47-.37.96-.65,1.47-.88Z"/>
        <path class="cls-6" d="m84.33,163.1c1.29,1.76,2.89,3.32,4.64,4.6.98.72,2.03,1.35,3.12,1.88.65.32,1.4.53,2.1.81-.04-.49-.07-.99-.11-1.48-.18-2.43-.56-5.03-.42-7.49-3.07.72-6.21,1.24-9.33,1.67Z"/>
        <path class="cls-6" d="m39.06,169.53c0,.35,0,.7-.01,1.05,4.7-.86,9.03-3.37,11.97-7.15-.67-.08-1.35-.17-2.02-.26-3.27-.45-6.75-.85-9.95-1.83.16,1.13.03,2.38.03,3.47,0,1.58,0,3.15-.02,4.72Z"/>
        <path class="cls-1" d="m61.21,93.06s-.01,0-.02-.01c-.02.03-.04.05-.06.07-.27.21-.57.39-.58.78-.01.35.27.55.6.55.9.01.68-1.12.07-1.39Z"/>
        <path class="cls-1" d="m72.33,92.49s-.01,0-.02-.01c-.02.03-.04.05-.06.07-.27.21-.57.39-.58.78-.01.35.27.55.6.55.9.01.68-1.12.07-1.39Z"/>
        <path class="cls-1" d="m83.01,92.63s-.01,0-.02-.01c-.02.03-.04.05-.06.07-.27.21-.57.39-.58.78-.01.35.27.55.6.55.9.01.67-1.12.07-1.39Z"/>
        <path class="cls-4" d="m105.41,139.8c-.24-8.63-.49-17.26-.73-25.9-.24-8.47-.1-17.09-1.39-25.49-1.11-7.2-3.48-14.52-8.28-20.15-3.12-3.66-7.1-6.2-11.52-7.48-.31,2.74-2.48,5.47-4.49,7.06-2.68,2.12-6.08,3.08-9.47,2.98-6-.17-14.07-4.35-13.04-11.35-1.6.28-3.18.64-4.76,1.09-3.8,1.1-7.46,2.62-10.98,4.42-3.56,1.82-6.97,3.92-10.29,6.15-1.63,1.09-3.25,2.21-4.86,3.35-.86.61-1.72,1.22-2.58,1.83-.78.55-1.52,1.21-2.42,1.52-.08.03-.17.03-.25,0,.2,1.71.42,3.43.65,5.14.11.82-1.14,1.16-1.25.34-.74-5.47-1.36-10.95-1.82-16.45-.47-5.51-.86-11.02-.66-16.55-1.12.46-2.52.29-3.71.36-1.4.08-2.8.18-4.19.3-2.69.24-5.39.45-8.08.69.32,2.91.2,5.9.41,8.82.21,2.94.5,5.88.87,8.81.66,5.34,1.55,10.66,2.46,15.96.39,2.3.82,4.7,2.04,6.73,1.15,1.92,3,3.3,5.06,4.15,4.45,1.83,9.59,1.39,14.1-.02,4.81-1.5,8.88-4.24,13.12-6.87.09-.06.19-.08.28-.08.14-2.6.29-5.19.48-7.79-.28-.38-.51-.81-.76-1.18-.53-.78-1.01-1.57-1.45-2.41-.11-.22.18-.48.36-.27.57.65,1.1,1.32,1.6,2.03.11.16.23.32.36.49.05-.71.11-1.42.16-2.13.03-.38.6-.39.6,0,0,1.08,0,2.16,0,3.25.1.2.18.39.23.59.04.16-.08.33-.23.36-.04,4.6-.16,9.2-.33,13.81-.02.61-.05,1.23-.07,1.84,1.12-1.65,2.22-3.29,3.11-5.12.16-.33.69-.39.93-.12,1.03,1.14,1.98,2.34,2.91,3.55.8,1.04,1.66,2.1,2.36,3.22.5-1.09,1.45-2.15,2.06-3.06.92-1.37,1.86-2.74,2.79-4.11.27-.4.83-.42,1.1,0,1.45,2.22,3.15,4.43,4.42,6.77.76-1.14,1.73-2.17,2.53-3.26.96-1.31,1.87-2.66,2.72-4.05.22-.35.78-.48,1.08-.14,1.11,1.29,2.25,2.55,3.43,3.77,1.07,1.11,2.31,2.13,3.33,3.29.41-.95.97-1.86,1.45-2.75.7-1.3,1.42-2.6,2.12-3.9.26-.48.89-.39,1.17,0,.89,1.27,1.78,2.53,2.72,3.76.52.68,1.05,1.34,1.59,2.01.21.26.41.47.57.7.56-1.16,1.26-2.27,1.91-3.38.44-.75.88-1.5,1.33-2.25.25-.43.47-.99.9-1.29.87-.62,1.56.2,2.05.85.75.99,1.75,2.04,2.38,3.18-.06-.99-.11-1.98-.15-2.98-.26-5.48-.44-11.02.03-16.5.04-.52.8-.53.82,0,.05,1.51.1,3.02.14,4.54.15-.24.29-.48.42-.71.56-1.01,1.15-2,1.76-2.98.18-.28.58-.04.44.26-.5,1.04-1.02,2.07-1.57,3.09-.33.61-.62,1.29-1.01,1.87.11,4.14.21,8.28.45,12.42.63,10.93,1.78,21.83,2.59,32.75.4,5.41.71,10.83.84,16.25.12,5.39.21,10.9-.35,16.27.43.27.49,1.02-.15,1.19-.34.09-.69.18-1.03.27.54,2.42.56,5.07.76,7.52.06.79.13,1.58.19,2.38.48,0,.99.09,1.42.08,1.18-.02,2.36-.12,3.53-.34,1.17-.22,2.32-.53,3.44-.94.7-.25,1.45-.69,2.2-.87,0-.05-.02-.1-.02-.15-.27-9.68-.55-19.37-.82-29.05Zm-55.09-44.72c-.71.03-1.36-.48-1.41-1.21-.05-.62.41-1.49,1.12-1.46.11,0,.21.08.27.17.04-.04.09-.07.15-.07.72.01,1.2.62,1.18,1.33-.03.71-.62,1.22-1.32,1.24Zm10.86.14c-.71.03-1.36-.48-1.41-1.21-.05-.62.41-1.49,1.12-1.46.11,0,.21.08.27.17.04-.04.09-.07.15-.07.72.01,1.2.62,1.18,1.33-.03.71-.62,1.22-1.32,1.24Zm11.12-.56c-.71.03-1.36-.48-1.41-1.21-.05-.62.41-1.49,1.12-1.46.11,0,.21.08.27.17.04-.04.09-.07.15-.07.72.01,1.2.62,1.18,1.33-.03.71-.62,1.22-1.32,1.24Zm10.68.14c-.71.03-1.36-.48-1.41-1.21-.05-.62.41-1.49,1.12-1.46.11,0,.21.08.27.17.04-.04.09-.07.15-.07.72.01,1.2.62,1.18,1.33-.03.71-.62,1.22-1.32,1.24Z"/>
        <path class="cls-7" d="m88.71,153.14c-3.39,1.49-6.86,2.48-10.48,3.21-5.83,1.17-18.01,3.57-21.25-3.49-1.54-3.35-.36-7.45,2.5-9.65,3.34-2.58,7.82-3.2,11.68-4.67,1.99-.76,8.41-4.01,5.12-6.52-1.47-1.13-3.63-1.62-5.36-2.23-1.6-.56-3.21-1.11-4.79-1.71-6.26-2.38-11.59-5.82-15.07-11.66-2.14-3.58-3.57-7.57-4.47-11.67-.93-1.06-1.89-2.08-2.88-3.08-1.1,1.9-2.12,3.98-3.51,5.64-.25,6.79-.5,13.59-.75,20.38-.4,10.58-.65,21.17-1.23,31.74-.01.25-.13.42-.29.52,2.01.18,4,.62,5.98.97,2.19.38,4.38.7,6.58.96,7.44.88,14.95,1.17,22.44.8,7.3-.36,14.42-1.52,21.58-2.86.11-3.4.22-6.79.28-10.18-1.64,1.7-4.82,2.98-6.07,3.53Zm-43.27-45.76c-.71.03-1.36-.48-1.41-1.21-.05-.62.41-1.49,1.12-1.46.11,0,.21.08.27.17.04-.04.09-.07.15-.07.72.01,1.2.62,1.18,1.33-.03.71-.62,1.22-1.32,1.24Z"/>
        <path class="cls-7" d="m45.44,157.99c-.06,0-.06-.09,0-.09s.06.09,0,.09Z"/>
        <path class="cls-2" d="m45.6,98.51c-.1-1.01-.15-2.03-.2-3.04-.38-.48-.77-.97-1.15-1.45-1.07,1.88-2.29,3.81-3.77,5.39-.07,1.92-.14,3.84-.21,5.77.83-1.67,1.89-3.29,2.75-4.89.2-.38.71-.4,1-.13.71.66,1.4,1.34,2.07,2.04-.2-1.23-.38-2.46-.49-3.69Z"/>
        <path class="cls-7" d="m38.94,79.65c-2.19,3.35-4.62,6.39-8.51,8.17-5.54,2.54-11.8,2.53-16.87-1.07-5.47-3.89-9.29-9.13-10.42-15.76-.36-2.12-.73-4.24-1.1-6.37.15,1.57.32,3.14.51,4.7.66,5.34,1.55,10.66,2.46,15.96.39,2.3.82,4.7,2.04,6.73,1.15,1.92,3,3.3,5.06,4.15,4.45,1.83,9.59,1.39,14.1-.02,4.81-1.5,8.88-4.24,13.12-6.87.09-.06.19-.08.28-.08.14-2.6.29-5.19.48-7.79-.28-.38-.51-.81-.76-1.18-.13-.19-.25-.39-.38-.59Z"/>
        <path class="cls-7" d="m100.39,165.93c-.14-3.61-.07-7.24,0-10.85.07-4.16.27-8.3.79-12.43.52-4.17.95-8.24.64-12.44-.64-8.62-2.81-17.03-4.7-25.44-.93-4.17-1.66-8.38-2.68-12.53-.73-2.98-1.49-5.94-2.02-8.96.1,3.72.2,7.44.42,11.16.63,10.93,1.78,21.83,2.59,32.75.4,5.41.71,10.83.84,16.25.12,5.39.21,10.9-.35,16.27.43.27.49,1.02-.15,1.19-.34.09-.69.18-1.03.27.54,2.42.56,5.07.76,7.52.06.79.13,1.58.19,2.38.48,0,.99.09,1.42.08,1.18-.02,2.36-.12,3.53-.34.06-.01.13-.03.19-.04-.37-1.6-.36-3.43-.42-4.83Z"/>
        <path class="cls-7" d="m44.5,87.31c-.95-3.64-2.45-7.15-3.63-10.73-.5.8-1,1.6-1.5,2.39.15.2.3.39.44.6.11.16.23.32.36.49.05-.71.11-1.42.16-2.13.03-.38.6-.39.6,0,0,1.08,0,2.16,0,3.25.1.2.18.39.23.59.04.16-.08.33-.23.36-.04,4.6-.16,9.2-.33,13.81-.02.61-.05,1.23-.07,1.84,1.12-1.65,2.22-3.29,3.11-5.12.16-.33.69-.39.93-.12.25.27.48.56.72.84-.11-2.04-.28-4.07-.8-6.07Z"/>
        <path class="cls-6" d="m95.32,185.36c-.21-2.7-.42-5.41-.62-8.11-.13-1.74-.26-3.48-.39-5.22-.05-.1-.05-.21-.02-.31,0-.08-.01-.16-.02-.24-.92-.2-1.86-.71-2.64-1.1-1.16-.58-2.26-1.27-3.29-2.05-1.88-1.44-3.38-3.16-4.64-5.14-.18.02-.36.05-.55.07-4.43.58-8.89.93-13.35,1.05.54,1.3.66,2.83.73,4.2.08,1.6.18,3.36-.09,4.95-.31,1.8-2.09,3.84-3.91,2.79,0,.35-.04.69-.16.99-.09.23-.37.28-.51.07-.59-.85-.45-2.17-.52-3.18-.09-1.23-.13-2.47-.15-3.7-.03-2.01-.06-4.07.2-6.07-1.7-.01-3.4-.06-5.1-.14-2.72-.13-5.44-.35-8.15-.65-3.13,4.27-7.84,7.11-13.09,7.71-.02,2.5-.05,4.99-.08,7.49l-.12,9.45c-.02,1.58-.04,3.15-.07,4.72-.02,1.37.23,3.13-.29,4.42-.05.12-.12.21-.21.27,2,.21,3.98.55,6,.67,2.11.12,4.23.12,6.34-.03,2.2-.16,4.4-.47,6.55-.93,1.69-.36,3.31-.92,4.96-1.4-.24-1.07-.12-2.24-.07-3.32.06-1.28.13-2.56.2-3.84.13-2.29.13-4.64.42-6.92.21-1.67,1.26-2.4,2.87-2.54,2.3-.19,4.62-.15,6.93-.21.52-.01.49.73,0,.79-.84.1-1.69.21-2.53.32.17,1.04.09,2.16.09,3.2,0,1.26,0,2.52.03,3.78.04,1.33.1,2.67.19,4,.05.79.28,1.75.23,2.6,4.25.13,8.48.33,12.73.05,2.37-.16,4.72-.43,7.06-.81,1.13-.19,2.25-.4,3.36-.63.73-.15,1.47-.39,2.22-.52-.15-.81-.16-1.66-.23-2.47-.11-1.35-.23-2.7-.33-4.06Z"/>
        <path class="cls-5" d="m77.01,13.86c-.43,0-.58-.5-.33-.8.9-1.06.92-1.55-.45-1.61-.73-.03-1.49.1-2.21.2-1.15.16-2.31.44-3.48.48-.39.01-.63-.53-.33-.8.46-.41.81-.92,1.21-1.4-4.04-1.09-7.81,2.21-11.87,2.19-.42,0-.59-.5-.33-.8.42-.48.79-.99,1.22-1.45-3.66-1.39-8.24.27-11.86,2.36-.28.88-.47,1.79-.55,2.77.13.12.16.32,0,.49-2.1,2.04-3.08,5.02-3.18,7.9-.12,3.45,1.01,6.61,1.82,9.9.7-.38,1.49-.59,2.32-.55,1.42.07,2.94.84,3.63,2.11.24-1.07.57-2.14.77-3.22.3-1.59.49-3.2.58-4.81.09-1.6.08-3.2-.03-4.8-.1-1.34-.48-2.39-.93-3.64-.08-.21.19-.38.37-.28,0,0,0,0,0,0,.05-.02.1-.03.16-.01,5.12,1.01,10.49,1.43,15.71,1.3,2.66-.06,5.33-.29,7.96-.71,1.31-.2,2.61-.45,3.91-.74,1.08-.24,2.3-.78,3.41-.63.31.04.62.46.3.71-.21.17-.44.3-.68.42,1.12,2.63,1.91,5.26,2.35,8.11.23,1.5.39,3.01.44,4.52.03.85.09,1.76.02,2.64.68-1.48,1.22-2.98,1.48-4.66.36-2.29.23-4.63-.2-6.9-.15-.18-.21-.43-.05-.65.66-.94,1.58-1.7,2.32-2.59.61-.74,1.16-1.53,1.73-2.3-2.2-.37-4.47-1.48-6.42-2.65-2.89-.37-5.78-.15-8.78-.12Z"/>
        <path class="cls-5" d="m88.8,167.57c1.78-.92,3.45-2.01,4.88-3.36-.06-.94-.08-1.87-.02-2.79-3.07.72-6.21,1.24-9.33,1.67,1.25,1.7,2.8,3.22,4.48,4.47Z"/>
        <path class="cls-5" d="m39.06,169.53c0,.35,0,.7-.01,1.05,4.7-.86,9.03-3.37,11.97-7.15-.67-.08-1.35-.17-2.02-.26-3.27-.45-6.75-.85-9.95-1.83.16,1.13.03,2.38.03,3.47,0,1.58,0,3.15-.02,4.72Z"/>
        <path class="cls-5" d="m80.89,193.15c-.03-3.63-.09-7.27-.08-10.9.01-3.53.07-7.08-1.02-10.48-.08-.26.1-.48.33-.57,2.53-1,5.26-1.97,7.82-3.2-1.7-1.37-3.09-2.98-4.25-4.81-.18.02-.36.05-.55.07-4.43.58-8.89.93-13.35,1.05.54,1.3.66,2.83.73,4.2.08,1.6.18,3.36-.09,4.95-.31,1.8-2.09,3.84-3.91,2.79,0,.35-.04.69-.16.99-.09.23-.37.28-.51.07-.59-.85-.45-2.17-.52-3.18-.09-1.23-.13-2.47-.15-3.7-.03-2.01-.06-4.07.2-6.07-1.7-.01-3.4-.06-5.1-.14-2.72-.13-5.44-.35-8.15-.65-3.13,4.27-7.84,7.11-13.09,7.71-.02,2.5-.05,4.99-.08,7.49l-.12,9.45c-.02,1.58-.04,3.15-.07,4.72-.02,1.37.23,3.13-.29,4.42-.05.12-.12.21-.21.27,2,.21,3.98.55,6,.67,2.11.12,4.23.12,6.34-.03,2.2-.16,4.4-.47,6.55-.93,1.69-.36,3.31-.92,4.96-1.4-.24-1.07-.12-2.24-.07-3.32.06-1.28.13-2.56.2-3.84.13-2.29.13-4.64.42-6.92.21-1.67,1.26-2.4,2.87-2.54,2.3-.19,4.62-.15,6.93-.21.52-.01.49.73,0,.79-.84.1-1.69.21-2.53.32.17,1.04.09,2.16.09,3.2,0,1.26,0,2.52.03,3.78.04,1.33.1,2.67.19,4,.05.79.28,1.75.23,2.6,3.47.11,6.93.25,10.4.14,0-.26,0-.52,0-.78Z"/>
        <path class="cls-8" d="m100.84,172.38c-1.24.23-2.5.36-3.76.37-.39,0-.84.04-1.28.02.11,1.34.21,2.69.32,4.03.21,2.78.43,5.56.64,8.34.02.24.04.49.05.73,1.24-.9,1.46-2.51,1.44-4-.03-1.76-.24-3.54.39-5.23.1-.27.53-.17.44.12-.91,3.12,2,8.59-2.09,10.45-.03.01-.05.02-.08.03.05.65.09,1.3.14,1.95.06.93.23,1.92.16,2.86.51-.11,1.01-.23,1.5-.45.93-.42,1.79-1.01,2.5-1.75,1.46-1.49,2.22-3.49,2.62-5.5.44-2.24.39-4.55.33-6.82-.05-2.02-.19-4.15.22-6.15-1.15.44-2.33.77-3.54.99Z"/>
        <path class="cls-1" d="m50.35,92.92s-.01,0-.02-.01c-.02.03-.04.05-.06.07-.27.21-.57.39-.58.78-.01.35.27.55.6.55.9.02.68-1.12.07-1.39Z"/>
      </g>
      <g>
        <path d="m51.25,38.13c-.51-.92-1.13-2.03-2.23-2.32-.85-.22-1.69.06-2.15.8-.12.19.14.38.3.23,1.2-1.11,2.33.33,2.94,1.39-1.22,1.1-1.51,3.59.41,4.09.31.08.57-.26.41-.53-.61-1.06-1.14-2.06.13-2.95.24-.17.33-.45.19-.72Z"/>
        <path d="m45.44,157.9c-.06,0-.06.09,0,.09s.06-.09,0-.09Z"/>
        <path d="m106.3,114.81c-.24-8.64-.14-17.38-1.35-25.95-1.05-7.44-3.4-14.85-8.17-20.78-4.69-5.84-12.51-10.47-20.22-9.17,0,0,0,0,0,0-.03-.71.06-1.42.01-2.13-.02-.28,0-.6-.07-.88.54-.13,1.07-.27,1.6-.43,3.67-1.08,6.69-3.23,8.21-6.83,1.62-3.85,1.35-8.15.53-12.19.08-.04.15-.11.21-.19,2.8-3.84,3.54-9.52,2.11-14.03.98-.67,1.76-1.72,2.47-2.64.69-.9,1.27-1.82,1.71-2.84.29-.09.38-.42.27-.69.08-.33-.25-.49-.52-.42-1.34-.51-2.75-.78-4.07-1.36-.77-.33-1.52-.72-2.25-1.14.87-.12,1.74-.23,2.62-.35.51-.07.78-.49.56-.97-1.67-3.67-5.7-6.52-9.82-6.16.49-1.57.76-3.24,1.11-4.84.09-.41-.29-.94-.76-.76-7.14,2.84-14.96,1.11-22.3,2.91-5.34,1.31-11.96,5.93-10.92,12.27-5.23,4.62-3.75,12.79-1.6,18.61.02.05.04.09.07.13-.64.55-1.15,1.25-1.48,2.02-.92,2.16-.3,4.67,1.23,6.39,1.35,1.52,3.88,2.73,5.98,2.39.21,2.77,2.34,5.65,4.2,7.38,2.13,1.99,4.72,3.29,7.5,4-.1.41-.05.87-.06,1.3,0,.09,0,.18,0,.26-7.71-.55-15.73,2.37-22.51,5.77-3.76,1.88-7.35,4.08-10.84,6.42-1.75,1.17-3.47,2.39-5.19,3.62-.8.57-1.59,1.15-2.39,1.74-.66.49-1.38.93-1.93,1.54-.4-3.45-.76-6.9-1.05-10.36-.47-5.45-.74-10.91-1.35-16.35-.02-.16-.14-.25-.26-.26-.04-.18-.17-.34-.34-.4-.58-.21-1.27-.23-1.96-.19,3.88-2.17,6.86-6.38,7.62-10.74.36-2.08-1.44-3.42-3.3-2.28-.78.47-1.61,1.25-2.34,2.15.01-.56.02-1.11.03-1.62.05-1.84.04-3.69-.07-5.53-.1-1.84.23-5.64-2.06-6.31-.48-.26-1.12-.25-1.62-.04-.83.35-1.3,1.17-1.51,2.01-.1-.68-.26-1.35-.55-1.92-.47-.9-1.42-1.3-2.38-.9-.77.32-1.13.95-1.25,1.67-1.85-.9-3.53,1.52-3.81,3.17-.12.71-.18,1.44-.21,2.17-.06-.18-.13-.35-.21-.52-.55-1.1-1.92-1.13-2.73-.28C-.2,31.38,0,33.53.04,34.91c.04,1.77.02,4.02.76,5.67.01.03.03.05.05.07-.34,1.9-.54,3.81-.28,5.74.2,1.47.67,3.22,1.66,4.43-.36.07-.72.15-1.08.22-.19-.27-.67-.34-.74.08-.5,2.76-.28,5.72-.15,8.51.14,2.95.41,5.88.76,8.81.67,5.64,1.6,11.25,2.54,16.85.41,2.44.85,4.93,2.05,7.13,1.06,1.94,2.75,3.47,4.7,4.49,4.24,2.21,9.33,2.25,13.9,1.22,5.52-1.24,10.82-4.12,15.32-7.54-.32,6.35-.54,12.71-.8,19.07-.43,10.58-.82,21.16-1.22,31.74-.23,6-.51,12-.63,18.01,0,.41.28.62.59.64-.21.23-.13.71.22.84.08.03.17.06.25.09-.24,1.09-.16,2.3-.2,3.38-.04,1.5-.08,3-.11,4.5-.06,3.22-.11,6.45-.16,9.67l-.14,9.45c-.02,1.57-.04,3.15-.06,4.72-.02,1.44-.34,3.28.17,4.64.04.11.1.19.17.25-.22.11-.2.51.07.6,4.18,1.31,8.99,1.32,13.32.98,2.15-.17,4.29-.48,6.4-.94,2.13-.46,4.4-.97,6.37-1.92.43-.21.12-.87-.32-.76-.1.03-.21.06-.31.08.51-1.71.4-3.79.5-5.52.11-1.96.22-3.91.34-5.87.05-.84-.05-1.85.21-2.66.33-1.03,1.46-.91,2.35-.99.8-.07,1.6-.17,2.4-.27-.24.99-.26,2.09-.3,3.08-.06,1.33-.05,2.67-.03,4,.02,1.26.08,2.52.15,3.78.07,1.12-.08,2.64.56,3.6.28.41.81.3.99-.13.01-.03.02-.05.03-.08,4.3.75,8.75.72,13.09.42,2.26-.16,4.51-.42,6.74-.77,1.13-.18,2.25-.38,3.37-.61.5-.1,1.03-.19,1.55-.3.06.12.17.23.35.28,1.93.61,4.46-.74,5.93-1.91,1.72-1.36,2.84-3.3,3.48-5.38.67-2.2.8-4.53.76-6.82-.05-2.86-.07-5.7-.06-8.56.71-.3,1.41-.69,1.8-1.32.01-.02.02-.04.03-.07.25-.11.44-.34.43-.7l-1.52-54.05ZM44.84,23.41c.1-2.88,1.08-5.86,3.18-7.9.17-.17.13-.37,0-.49.22-2.95,1.41-5.46,3.62-7.49,2.47-2.28,5.73-3.35,9.01-3.85,6.35-.98,13.01.06,19.16-2.08-.31,1.54-.64,3.11-.72,4.67-.02.39.42.48.66.29.02,0,.04.01.06.01,3.58.38,6.75,1.96,8.57,5.06-1.19.17-2.39.34-3.58.51-.57.08-.55.88-.15,1.14,2.15,1.39,4.92,2.92,7.56,3.36-.56.78-1.12,1.56-1.73,2.3-.73.89-1.65,1.65-2.32,2.59-.16.23-.1.48.05.65.42,2.27.55,4.61.2,6.9-.26,1.67-.8,3.18-1.48,4.66.08-.88.02-1.79-.02-2.64-.06-1.52-.21-3.02-.44-4.52-.44-2.85-1.23-5.48-2.35-8.11.24-.11.47-.25.68-.42.32-.26.01-.67-.3-.71-1.11-.15-2.33.39-3.41.63-1.29.29-2.6.54-3.91.74-2.63.41-5.3.64-7.96.71-5.22.13-10.58-.3-15.71-1.3-.06-.01-.11,0-.16.01,0,0,0,0,0,0-.18-.1-.44.07-.37.28.45,1.25.83,2.3.93,3.64.12,1.59.12,3.2.03,4.8-.09,1.61-.28,3.22-.58,4.81-.2,1.08-.54,2.14-.77,3.22-.69-1.26-2.21-2.04-3.63-2.11-.82-.04-1.61.17-2.32.55-.81-3.29-1.94-6.45-1.82-9.9Zm13.21,28.87c-1.47-1.04-2.76-2.37-3.72-3.89-.49-.77-.91-1.6-1.21-2.46-.29-.82-.39-1.69-.71-2.5-.15-.38-.82-.51-.91,0,0,.05-.01.1-.02.14-1.69-.3-3.22-.36-4.62-1.6-1.3-1.16-2.08-3.02-1.69-4.76.34-1.52,1.54-2.85,3.09-3.16,1.76-.35,3.13.7,4.1,2.04.01.01.03.02.04.04.02.45.73.58.94.18.77-1.48,1.03-3.33,1.31-4.96.29-1.7.46-3.42.51-5.14.04-1.66,0-3.34-.23-4.98-.12-.81-.31-1.73-.8-2.42,5.04,1.32,10.09,1.95,15.32,1.82,2.64-.07,5.27-.31,7.87-.7,1.38-.21,2.75-.46,4.12-.76.64-.14,1.35-.25,2.01-.45.8,2.59,1.41,5.3,1.81,7.97.22,1.46.35,2.93.42,4.4.05,1.06-.05,2.19.07,3.26-.09.07-.15.17-.13.31.36,3.84,1.11,7.78.11,11.6-.97,3.69-3.39,6.21-6.97,7.47-6.49,2.29-14.88,2.69-20.71-1.45Zm5.03,6.33c0,.4.04.79.1,1.18.06.36.62.33.7,0,.2-.77.24-1.57.3-2.36.03-.36.09-.71.07-1.05.46.09.92.16,1.38.22,3.2.41,6.54.19,9.73-.48,0,.28.08.57.12.82.1.68.32,1.34.43,2.02,0,.01,0,.03.01.04,0,0,0,0,0,0-.46.1-.36.83.11.82.86-.02,1.72,0,2.56.07-1.02,1.6-1.94,3.07-3.59,4.18-1.73,1.17-3.79,1.86-5.89,1.8-4.27-.11-7.77-3.1-9.37-6.9,1.11-.14,2.23-.26,3.35-.37Zm-6.06.77c.66-.11,1.32-.21,1.98-.3,1,4.49,5.43,7.82,9.94,8.06,2.36.12,4.76-.61,6.7-1.94,1.73-1.18,3.6-3.07,4.07-5.19.89.11,1.76.27,2.62.48-.34,1.07-.63,2.12-1.24,3.13-.66,1.1-1.5,2.1-2.46,2.94-2.35,2.06-5.45,3.07-8.54,3.13-5.87.13-13.86-3.3-13.08-10.31ZM1.67,45.86c-.21-1.83-.07-3.71-.05-5.55,0-.15-.09-.26-.21-.31.07-.88-.09-1.78-.15-2.66-.09-1.25-.16-2.5-.11-3.75.02-.59,0-1.28.18-1.85.18-.56.4-.9.97-.78.53.12.52.31.68.79.38,1.15.51,2.36.51,3.57,0,.06.02.11.05.14-.09,1.09-.15,2.19-.02,3.23.06.45.74.64.86.12.25-1.06.22-2.19.28-3.28.07-1.2.14-2.41.21-3.61.11-1.9.06-5.81,2.95-5.26.13.19.47.21.51-.06,0,0,0-.02,0-.02.07-.09.1-.22.07-.34.11-.47.34-.97.74-1.2.86-.49,1.28.11,1.51.75.31.87.32,1.92.46,2.82.27,1.78.33,3.88.89,5.63.05.98.12,1.95.22,2.93.04.37.54.37.57,0,.17-2.15.22-4.28.21-6.43,0-1.4-.49-5.91,2.17-4.68.11.05.22.05.31.02.38.89.3,2.26.34,2.93.08,1.47.11,2.95.13,4.42.02,1.4,0,2.8-.05,4.2-.04.98-.15,2.04-.1,3.06-.14.33-.26.65-.33.97-1.19.23-2.24.7-3.23,1.48-.88.69-2.14,1.86-2.11,3.07,0,.22.26.39.46.26.88-.55,1.4-1.63,2.2-2.32.83-.71,1.83-1.27,2.86-1.65.1.03.2.01.29-.1.08-.03.16-.05.24-.08.11-.03.18-.09.22-.16.12-.04.22-.12.27-.24.14-.33.24-.68.31-1.04.63-.99,1.24-1.97,2.13-2.82.77-.72,2.96-1.96,2.56.3-.15.84-.43,1.68-.74,2.48-1.34,3.41-3.83,6.11-6.82,8.16-.14.1-.19.23-.17.36-.29.03-.58.06-.85.08-1.4.09-2.79.2-4.19.34-1.82.18-3.61.44-5.39.77-.92-1.53-1.65-2.88-1.86-4.7Zm36.25,114.07c.16-.1.28-.28.29-.52.58-10.57.83-21.16,1.23-31.74.25-6.79.5-13.59.75-20.38,1.39-1.67,2.41-3.75,3.51-5.64,1.08,1.09,2.14,2.21,3.14,3.37,1.17,1.36,2.17,2.93,3.42,4.21.02.02.04.04.06.05.03.36.58.53.79.17,1.35-2.28,2.52-4.63,3.95-6.86.71.78,1.41,1.56,2.06,2.39.75.97,1.36,2.11,2.22,2.98.1.1.22.14.34.15.17.09.38.08.56-.08,2.15-2.07,3.9-4.67,5.71-7.07,1.01,1.22,2.05,2.42,3.09,3.62.86.99,1.79,2.55,3.2,2.72.19.17.47.22.67-.04.81-1.04,1.54-2.14,2.26-3.25.37-.56.73-1.13,1.1-1.69.2-.31.45-.61.61-.94.23-.47.02-.57.47-.18,1.96,1.71,3.14,4.32,5.25,5.89.38.28.78-.05.85-.43,1.63-1.46,3.01-3.32,4.44-4.97.51-.59.55-.61,1.13-.14.43.34.79.91,1.16,1.32.64.72,1.24,1.46,1.97,2.07.1,1.26.2,2.51.3,3.77.91,10.9,1.97,21.8,2.31,32.74.19,6.13-.06,12.2-.25,18.33-7.16,1.35-14.28,2.5-21.58,2.86-7.49.37-15,.08-22.44-.8-2.2-.26-4.4-.58-6.58-.96-1.98-.34-3.97-.79-5.98-.97Zm45.11-54.23c-.76-1.15-1.85-2.18-2.74-3.2-.56-.65-1.13-1.3-1.69-1.95-.35-.4-.73-1.03-1.32-1.12-1.21-.18-1.94,1.79-2.44,2.59-.84,1.34-1.71,2.67-2.47,4.06-.73-1.02-1.77-1.95-2.56-2.87-1.12-1.3-2.24-2.59-3.39-3.86-.34-.37-.84-.2-1.1.14-1.78,2.33-3.83,4.63-5.38,7.14-.45-.9-1.11-1.72-1.72-2.5-.85-1.09-1.76-2.15-2.78-3.07-.32-.29-.79-.23-1.03.13-1.33,2.09-2.66,4.28-3.59,6.6-.81-1.28-1.92-2.48-2.89-3.59-1.23-1.42-2.54-2.77-3.91-4.05-.29-.27-.8-.25-1,.13-.86,1.6-1.92,3.22-2.75,4.89.07-1.92.14-3.84.21-5.77,1.48-1.58,2.7-3.51,3.77-5.39.85,1.07,1.7,2.13,2.52,3.22.87,1.16,1.64,2.43,2.58,3.53.36.42.93.08,1-.36,1.06-.81,1.79-2.31,2.52-3.36.79-1.15,1.58-2.29,2.37-3.44,1.37,2.18,2.67,4.49,4.28,6.47.2.24.45.24.66.12.09.01.18,0,.27-.07,1.27-.91,2.26-2.26,3.21-3.49.88-1.14,1.71-2.32,2.49-3.54.94,1.14,1.92,2.24,2.94,3.32,1.14,1.2,2.32,2.53,3.7,3.47.17.12.33.14.48.11.15.06.32.04.45-.1.91-1.01,1.51-2.31,2.18-3.48.55-.97,1.09-1.94,1.63-2.92.73,1.08,1.5,2.13,2.3,3.17.79,1.03,1.64,2.59,2.87,3.08.04.01.07.02.11.03.16.07.35.05.47-.09,1.55-1.85,2.69-4.09,3.93-6.15.15-.24.28-.53.45-.74.05-.06.06-.11.07-.15.02.03.04.05.08.09.45.48.8,1.11,1.19,1.64.66.9,1.25,1.94,2.18,2.59.14.1.3.1.44.04.12,1.94.25,3.88.39,5.82-.56-.65-1.16-1.26-1.73-1.89-.56-.62-1.25-1.55-2.2-1.09-.42.21-.72.66-1.01,1-.53.63-1.07,1.26-1.6,1.89-.8.96-1.68,1.92-2.41,2.95Zm11.05,63.21c.04.49.07.99.11,1.48-.7-.28-1.45-.49-2.1-.81-1.09-.53-2.14-1.16-3.12-1.88-1.74-1.28-3.35-2.84-4.64-4.6,3.13-.43,6.26-.95,9.33-1.67-.14,2.46.24,5.05.42,7.49Zm-27.96-4.55c.9,0,1.8-.01,2.7-.03.25,1.05.56,2.06.67,3.15.12,1.16.12,2.33.11,3.49,0,1.08.04,2.23-.35,3.26-.41,1.05-1.65,1.99-2.76,1.31-.06-.49-.15-.98-.18-1.42-.09-1.23-.16-2.47-.2-3.7-.06-2.02.05-4.05,0-6.07Zm-27.07-3.02c3.2.98,6.68,1.38,9.95,1.83.67.09,1.35.18,2.02.26-2.94,3.78-7.27,6.28-11.97,7.15,0-.35,0-.7.01-1.05.01-1.57.02-3.15.02-4.72,0-1.08.13-2.33-.03-3.47Zm54.61,31.06c-1.12.24-2.24.45-3.36.63-2.34.39-4.7.65-7.06.81-4.25.28-8.48.09-12.73-.05.05-.85-.18-1.82-.23-2.6-.09-1.33-.15-2.67-.19-4-.04-1.26-.03-2.52-.03-3.78,0-1.05.08-2.16-.09-3.2.84-.11,1.68-.22,2.53-.32.49-.06.52-.8,0-.79-2.31.06-4.62.02-6.93.21-1.61.13-2.66.86-2.87,2.54-.29,2.28-.29,4.63-.42,6.92-.07,1.28-.15,2.56-.2,3.84-.05,1.08-.17,2.25.07,3.32-1.65.48-3.27,1.04-4.96,1.4-2.16.47-4.35.78-6.55.93-2.11.15-4.23.16-6.34.03-2.01-.12-4-.46-6-.67.09-.06.16-.15.21-.27.52-1.28.27-3.04.29-4.42.02-1.57.05-3.15.07-4.72l.12-9.45c.03-2.5.06-4.99.08-7.49,5.25-.6,9.96-3.44,13.09-7.71,2.71.3,5.43.52,8.15.65,1.7.08,3.4.13,5.1.14-.26,2-.23,4.06-.2,6.07.02,1.24.07,2.47.15,3.7.07,1.01-.07,2.33.52,3.18.15.21.42.16.51-.07.12-.3.17-.64.16-.99,1.82,1.05,3.6-.99,3.91-2.79.27-1.59.17-3.35.09-4.95-.07-1.37-.19-2.9-.73-4.2,4.46-.12,8.92-.47,13.35-1.05.18-.02.36-.05.55-.07,1.25,1.98,2.75,3.7,4.64,5.14,1.03.78,2.13,1.47,3.29,2.05.78.39,1.72.9,2.64,1.1,0,.08.01.16.02.24-.03.1-.02.21.02.31.13,1.74.26,3.48.39,5.22.21,2.7.42,5.41.62,8.11.1,1.35.22,2.7.33,4.06.07.81.08,1.66.23,2.47-.75.12-1.49.36-2.22.52Zm10.51-14.87c.05,2.27.1,4.58-.33,6.82-.39,2.02-1.16,4.01-2.62,5.5-.71.73-1.57,1.32-2.5,1.75-.48.22-.99.34-1.5.45.07-.95-.09-1.94-.16-2.86-.04-.65-.09-1.3-.14-1.95.03,0,.05-.02.08-.03,4.09-1.86,1.18-7.34,2.09-10.45.08-.29-.34-.39-.44-.12-.63,1.69-.42,3.46-.39,5.23.02,1.49-.2,3.1-1.44,4-.02-.24-.04-.49-.05-.73-.21-2.78-.43-5.56-.64-8.34-.1-1.35-.21-2.69-.32-4.03.44.02.9-.01,1.28-.02,1.26,0,2.52-.14,3.76-.37,1.21-.22,2.39-.55,3.54-.99-.41,2-.27,4.13-.22,6.15Zm-.11-7.66c-1.12.4-2.27.72-3.44.94-1.17.22-2.34.32-3.53.34-.43,0-.94-.08-1.42-.08-.06-.79-.13-1.58-.19-2.38-.2-2.45-.21-5.1-.76-7.52.34-.09.69-.17,1.03-.27.63-.17.58-.91.15-1.19.56-5.37.47-10.88.35-16.27-.12-5.42-.44-10.84-.84-16.25-.81-10.92-1.96-21.81-2.59-32.75-.24-4.14-.34-8.28-.45-12.42.39-.59.68-1.27,1.01-1.87.55-1.02,1.07-2.04,1.57-3.09.14-.29-.27-.54-.44-.26-.61.98-1.19,1.97-1.76,2.98-.13.24-.28.47-.42.71-.04-1.51-.08-3.02-.14-4.54-.02-.53-.77-.52-.82,0-.47,5.47-.29,11.02-.03,16.5.05.99.1,1.98.15,2.98-.63-1.14-1.63-2.19-2.38-3.18-.49-.65-1.18-1.47-2.05-.85-.42.3-.64.86-.9,1.29-.44.75-.88,1.5-1.33,2.25-.65,1.11-1.35,2.21-1.91,3.38-.16-.23-.36-.44-.57-.7-.54-.66-1.07-1.33-1.59-2.01-.94-1.23-1.83-2.5-2.72-3.76-.28-.39-.91-.48-1.17,0-.7,1.3-1.42,2.59-2.12,3.9-.48.89-1.04,1.8-1.45,2.75-1.03-1.16-2.26-2.18-3.33-3.29-1.18-1.22-2.32-2.49-3.43-3.77-.3-.34-.86-.21-1.08.14-.85,1.39-1.76,2.74-2.72,4.05-.8,1.09-1.78,2.12-2.53,3.26-1.26-2.35-2.96-4.55-4.42-6.77-.27-.42-.82-.4-1.1,0-.93,1.37-1.86,2.74-2.79,4.11-.61.91-1.56,1.98-2.06,3.06-.7-1.12-1.57-2.18-2.36-3.22-.93-1.21-1.88-2.41-2.91-3.55-.24-.27-.77-.21-.93.12-.89,1.83-1.99,3.46-3.11,5.12.02-.61.05-1.23.07-1.84.17-4.61.29-9.21.33-13.81.15-.03.27-.19.23-.36-.04-.2-.13-.4-.23-.59,0-1.08,0-2.16,0-3.25,0-.39-.57-.38-.6,0-.06.71-.11,1.42-.16,2.13-.13-.17-.25-.33-.36-.49-.5-.71-1.02-1.38-1.6-2.03-.18-.2-.47.06-.36.27.44.84.92,1.63,1.45,2.41.25.37.49.8.76,1.18-.18,2.59-.34,5.19-.48,7.79-.09,0-.19.02-.28.08-4.24,2.63-8.31,5.37-13.12,6.87-4.5,1.4-9.64,1.85-14.1.02-2.05-.85-3.91-2.22-5.06-4.15-1.22-2.03-1.64-4.43-2.04-6.73-.9-5.31-1.79-10.62-2.46-15.96-.36-2.93-.65-5.87-.87-8.81-.21-2.92-.09-5.91-.41-8.82,2.69-.24,5.39-.45,8.08-.69,1.4-.12,2.79-.22,4.19-.3,1.2-.07,2.59.1,3.71-.36-.2,5.53.19,11.04.66,16.55.47,5.5,1.08,10.98,1.82,16.45.11.82,1.36.47,1.25-.34-.23-1.71-.44-3.42-.65-5.14.08.02.17.02.25,0,.91-.31,1.65-.97,2.42-1.52.86-.61,1.72-1.22,2.58-1.83,1.61-1.14,3.22-2.26,4.86-3.35,3.32-2.22,6.73-4.32,10.29-6.15,3.51-1.8,7.18-3.32,10.98-4.42,1.57-.46,3.16-.81,4.76-1.09-1.03,7,7.04,11.18,13.05,11.35,3.39.1,6.8-.87,9.47-2.98,2.02-1.6,4.18-4.33,4.49-7.06,4.42,1.28,8.4,3.82,11.52,7.48,4.79,5.63,7.17,12.94,8.28,20.15,1.29,8.4,1.15,17.02,1.39,25.49.24,8.63.49,17.26.73,25.9.27,9.68.55,19.37.82,29.05,0,.05,0,.1.02.15-.75.18-1.5.62-2.2.87Z"/>
        <path d="m8.67,32.45c-.12-1.61-.17-3.23-.26-4.84-.02-.4-.59-.4-.62,0-.11,1.69-.07,3.37.05,5.06.11,1.49.08,3.28.63,4.68.14.35.64.3.66-.09.1-1.56-.35-3.24-.47-4.81Z"/>
        <path d="m12.96,38.8c-.59-.37-1.15-.27-1.84-.25-.86.04-1.72.1-2.58.19-1.62.17-3.21.42-4.78.85-.33.09-.28.66.08.62,1.64-.18,3.27-.41,4.91-.55.79-.07,1.58-.12,2.37-.15.68-.03,1.26.05,1.84-.34.14-.09.14-.28,0-.37Z"/>
        <path d="m66.68,26.3c-.94-1.87-3.71-1.86-5.25-.88-.41.26-.05.85.37.64,1.58-.77,2.85.13,4.07,1.05.51.39,1.05-.34.81-.81Z"/>
        <path d="m82.52,27.07c-.62-.93-1.58-1.56-2.72-1.52-.96.03-2.26.54-2.37,1.61-.03.32.32.51.59.45.66-.14,1.07-.72,1.78-.8.77-.08,1.49.26,1.99.83.35.4,1.03-.12.74-.57Z"/>
        <path d="m72.46,39.47c-.34-.12-.57.42-.25.58.56.28.92.85.8,1.5-.1.51-.54.79-.77,1.22-.1.19.03.37.23.4.9.12,1.46-1.01,1.45-1.77,0-.91-.65-1.63-1.47-1.93Z"/>
        <path d="m75.02,47.29c-1.78.67-3.89.71-5.69.09-1.61-.56-2.6-1.8-4.04-2.61-.23-.13-.52.08-.45.35.46,1.73,2.59,2.9,4.17,3.42,2.17.72,4.28.42,6.33-.48.43-.19.12-.93-.32-.76Z"/>
        <path d="m65.39,33.05c-.29-.43-.76-.61-1.21-.52-.09-.02-.19,0-.27.09-.08.04-.16.09-.24.15-.33.25-.52.65-.61,1.08-.14.18-.2.42-.12.69-.02.12-.04.24-.05.36-.04.62.17,1.35.85,1.53,1.63.44,2.34-2.34,1.65-3.37Z"/>
        <path d="m79.93,33.05c-.29-.43-.76-.61-1.21-.52-.09-.02-.19,0-.27.09-.08.04-.16.09-.24.15-.33.25-.52.65-.61,1.08-.14.18-.2.42-.12.69-.02.12-.04.24-.05.36-.04.62.17,1.35.85,1.53,1.63.44,2.34-2.34,1.65-3.37Z"/>
        <path d="m61.55,37.12c-.23-.29-.48-.57-.74-.84-.21-.22-.48-.54-.81-.52-.11,0-.19.09-.2.2-.02.33.3.61.51.82.27.26.54.52.83.76.3.24.66-.12.42-.42Z"/>
        <path d="m59.75,37.3c-.19-.18-.38-.36-.57-.53-.14-.13-.4-.36-.59-.17-.18.18.04.43.18.54.21.17.42.35.63.52.24.21.6-.13.36-.36Z"/>
        <path d="m82.56,38.31c-.1-.24-.2-.49-.3-.73-.09-.21-.14-.45-.35-.56-.1-.05-.23,0-.26.11-.05.24.08.42.18.63.12.24.24.47.35.71.1.2.46.06.37-.16Z"/>
        <path d="m84.28,37.75c-.3-.36-.48-.78-.6-1.23-.07-.25-.23-.72-.58-.51-.36.22-.07.81.06,1.08.18.38.47.72.78,1,.24.22.55-.11.35-.35Z"/>
        <path d="m88.78,104.38c-.06,0-.11.03-.15.07-.06-.09-.16-.16-.27-.17-.72-.03-1.17.84-1.12,1.46.05.73.69,1.23,1.41,1.21.69-.02,1.29-.53,1.32-1.24.03-.71-.45-1.32-1.18-1.33Zm-.18,1.8c-.33,0-.61-.21-.6-.55.01-.39.31-.56.58-.78.03-.02.05-.05.06-.07,0,0,0,0,.02.01.61.28.83,1.41-.07,1.39Z"/>
        <path d="m79.01,103.54c-.06,0-.11.03-.15.07-.06-.09-.16-.16-.27-.17-.72-.03-1.17.84-1.12,1.46.05.73.69,1.23,1.41,1.21.69-.02,1.29-.53,1.32-1.24.03-.71-.45-1.32-1.18-1.33Zm-.18,1.8c-.33,0-.61-.21-.6-.55.01-.39.31-.56.58-.78.03-.02.05-.05.06-.07,0,0,0,0,.02.01.61.28.83,1.41-.07,1.39Z"/>
        <path d="m67.92,104.24c-.06,0-.11.03-.15.07-.06-.09-.16-.16-.27-.17-.72-.03-1.17.84-1.12,1.46.05.73.69,1.23,1.41,1.21.69-.02,1.29-.53,1.32-1.24.03-.71-.45-1.32-1.18-1.33Zm-.18,1.8c-.33,0-.61-.21-.6-.55.01-.39.31-.56.58-.78.03-.02.05-.05.06-.07,0,0,0,0,.02.01.61.28.83,1.41-.07,1.39Z"/>
        <path d="m55.46,104.95c-.06,0-.11.03-.15.07-.06-.09-.16-.16-.27-.17-.72-.03-1.17.84-1.12,1.46.05.73.69,1.23,1.41,1.21.69-.02,1.29-.53,1.32-1.24.03-.71-.45-1.32-1.18-1.33Zm-.18,1.8c-.33,0-.61-.21-.6-.55.01-.39.31-.56.58-.78.03-.02.05-.05.06-.07,0,0,0,0,.02.01.61.28.83,1.41-.07,1.39Z"/>
        <path d="m45.57,104.81c-.06,0-.11.03-.15.07-.06-.09-.16-.16-.27-.17-.72-.03-1.17.84-1.12,1.46.05.73.69,1.23,1.41,1.21.69-.02,1.29-.53,1.32-1.24.03-.71-.45-1.32-1.18-1.33Zm-.18,1.8c-.33,0-.61-.21-.6-.55.01-.39.31-.56.58-.78.03-.02.05-.05.06-.07,0,0,0,0,.02.01.61.28.83,1.41-.07,1.39Z"/>
        <path d="m83.12,92.22c-.06,0-.11.03-.15.07-.06-.09-.16-.16-.27-.17-.72-.03-1.17.84-1.12,1.46.05.73.69,1.23,1.41,1.21.69-.02,1.29-.53,1.32-1.24.03-.71-.45-1.32-1.18-1.33Zm-.18,1.8c-.33,0-.61-.21-.6-.55.01-.39.31-.56.58-.78.03-.02.05-.05.06-.07,0,0,0,0,.02.01.61.28.83,1.41-.07,1.39Z"/>
        <path d="m72.44,92.08c-.06,0-.11.03-.15.07-.06-.09-.16-.16-.27-.17-.72-.03-1.17.84-1.12,1.46.05.73.69,1.23,1.41,1.21.69-.02,1.29-.53,1.32-1.24.03-.71-.45-1.32-1.18-1.33Zm-.18,1.8c-.33,0-.61-.21-.6-.55.01-.39.31-.56.58-.78.03-.02.05-.05.06-.07,0,0,0,0,.02.01.61.28.83,1.41-.07,1.39Z"/>
        <path d="m61.32,92.65c-.06,0-.11.03-.15.07-.06-.09-.16-.16-.27-.17-.72-.03-1.17.84-1.12,1.46.05.73.69,1.23,1.41,1.21.69-.02,1.29-.53,1.32-1.24.03-.71-.45-1.32-1.18-1.33Zm-.18,1.8c-.33,0-.61-.21-.6-.55.01-.39.31-.56.58-.78.03-.02.05-.05.06-.07,0,0,0,0,.02.01.61.28.83,1.41-.07,1.39Z"/>
        <path d="m50.46,92.51c-.06,0-.11.03-.15.07-.06-.09-.16-.16-.27-.17-.72-.03-1.17.84-1.12,1.46.05.73.69,1.23,1.41,1.21.69-.02,1.29-.53,1.32-1.24.03-.71-.45-1.32-1.18-1.33Zm-.18,1.8c-.33,0-.61-.21-.6-.55.01-.39.31-.56.58-.78.03-.02.05-.05.06-.07,0,0,0,0,.02.01.61.28.83,1.41-.07,1.39Z"/>
      </g>
    </g>
  </g>
</svg>